<svg width="101" height="133" viewBox="0 0 101 133" fill="none" xmlns="http://www.w3.org/2000/svg">
<g clip-path="url(#clip0)">
<path d="M15.9585 13.9798C18.5415 12.9623 20.7881 12.1333 22.7834 11.5355C25.3635 10.7634 27.5835 10.2584 29.2347 9.92491C27.6107 7.84112 25.4546 6.23352 22.9935 5.27134C20.5323 4.30917 17.8571 4.02802 15.2495 4.45749C17.1658 3.42651 19.1803 2.58928 21.263 1.95826C23.7479 1.21617 26.3103 0.76316 28.8992 0.608227C31.1741 0.468013 35.9136 0.220743 41.2645 2.05964C44.275 3.09514 44.9176 3.9099 47.8533 4.47455C50.0819 4.89533 52.3646 4.94654 54.6099 4.62613L57.719 0C60.5626 5.2372 65.3249 10.9386 72.4161 14.6894C81.0201 19.2369 86.4762 19.0654 89.6118 18.7793C89.3549 18.819 87.225 20.2458 86.4032 21.3192C85.6569 22.2906 84.8519 23.2154 83.9927 24.0885C84.3948 27.0817 84.1258 30.1269 83.205 33.0034C81.2808 28.383 77.5906 25.2149 73.5422 24.9885C72.5895 24.9354 71.0776 25.015 69.2766 25.8326C68.4453 20.873 64.0357 18.0119 60.5247 18.8361C59.1844 19.1506 57.5711 20.3519 56.554 21.9559C56.0229 22.7987 55.662 23.7372 55.4914 24.7185C55.3966 24.0553 54.8838 20.9829 52.1738 19.0682C50.6448 17.9882 49.1216 17.7911 48.0978 17.6718C45.4314 17.362 40.8863 17.7741 37.489 21.2719C32.9713 25.9207 34.2178 32.1622 34.4074 33.0252C35.378 37.4827 38.4028 40.09 39.509 40.9275C43.0162 43.5802 46.7983 43.7696 52.6183 44.0539C57.2479 44.2841 60.665 43.7327 61.6726 43.5584C65.0353 42.9759 68.3067 41.9541 71.4028 40.5191C69.0132 42.3899 66.5 44.0972 63.8803 45.6294C61.4118 47.0737 58.854 48.3597 56.2222 49.4796C57.364 50.2774 58.5522 51.0066 59.7806 51.6633C61.1077 52.3739 64.9504 54.316 70.3895 55.3099C72.8966 55.7693 77.6759 56.5983 83.7017 55.3771C87.1469 54.6768 90.4557 53.4226 93.4991 51.6633C89.6988 55.9292 84.9889 59.2882 79.7167 61.4926C82.5904 62.8983 85.2626 64.6826 87.662 66.798C88.0102 67.1049 88.346 67.4141 88.6696 67.7255C89.3094 68.328 90.1625 69.1636 91.1209 70.1944C91.9844 71.1238 92.6877 71.9461 93.2138 72.5837C93.2138 72.5837 101.002 82.4972 101.002 95.6528C100.894 102.728 98.7438 107.599 97.3533 110.148C95.5523 113.445 93.4821 115.69 91.136 118.23C88.7426 120.822 86.0525 123.856 81.8552 126.408C81.3585 126.714 80.6116 127.16 79.6836 127.658C76.9678 129.114 65.3628 135.332 52.2449 132.051C47.5329 130.87 44.0778 128.83 41.8986 127.538C38.6771 125.632 35.6994 123.342 33.0311 120.717C33.6851 121.01 34.6889 121.447 35.9297 121.93C43.1394 124.737 52.0117 128.189 61.066 125.577C68.5278 123.425 72.9876 118.055 74.4758 116.069C76.0503 113.97 80.4476 107.457 79.784 98.4949C79.2798 91.6832 76.0512 85.9211 72.8919 82.8629C72.6748 82.6536 72.4293 82.4271 72.3658 82.3693C71.1582 81.2751 68.6178 79.2562 62.7381 76.1686C54.5435 71.8675 50.1017 70.4199 44.9565 68.6937C36.7593 65.952 28.3951 63.7369 19.915 62.0619C19.8753 64.7991 20.3846 67.5164 21.4131 70.0536C22.4415 72.5907 23.9682 74.8961 25.9029 76.8337C22.2393 75.3634 15.9614 72.2531 10.6996 65.825C5.53075 59.5115 3.73734 52.9651 3.37903 50.8107C2.37427 44.7739 4.23214 39.2913 4.95538 36.884C5.4634 35.1979 6.08441 33.5479 6.8142 31.9452C6.04856 32.1688 5.31793 32.4982 4.64352 32.9239C1.28134 35.0536 0.480373 38.9379 0.293638 40.0274C-0.260581 36.6029 -0.0337626 33.0975 0.957164 29.7728C2.58185 24.3632 5.77247 21.1061 7.16208 19.721C9.67179 17.2277 12.6653 15.2739 15.9585 13.9798V13.9798Z" fill="#4B73CD"/>
</g>
<defs>
<clipPath id="clip0">
<rect width="101" height="133" fill="white"/>
</clipPath>
</defs>
</svg>