<svg width="130" height="82" viewBox="0 0 130 82" fill="none" xmlns="http://www.w3.org/2000/svg">
<path d="M53.7061 73.8831C47.5621 75.2057 42.3892 76.0762 38.6392 76.6454C29.6828 78.0014 25.5813 78.1018 21.1617 77.3652C17.2611 76.7291 12.5066 75.8753 11.1171 72.5941C10.2634 70.468 11.1171 68.0908 12.0714 65.7135C13.1214 63.0355 14.679 60.5855 16.6584 58.4982C20.1278 54.6421 23.9379 51.1066 28.0422 47.9347C31.0221 45.7249 34.0355 43.5151 37.7185 41.0039L39.3926 39.8488C39.3926 39.8488 42.4394 37.8064 45.6034 35.8477C51.446 32.2317 61.658 26.8244 65.1568 24.9829C70.5474 22.1369 73.3097 20.6805 76.39 19.2073C83.5886 15.8591 88.2091 14.0176 89.3977 13.5656C92.7469 12.1474 96.2145 11.027 99.7603 10.2174C104.783 9.26315 110.424 8.22522 115.999 11.0712C116.669 11.4227 123.432 14.9886 124.922 21.8523C125.281 23.9295 125.281 26.053 124.922 28.1302C124.524 31.4973 123.645 34.7899 122.31 37.9069C121.238 40.7222 119.945 43.4483 118.443 46.0597C120.501 43.4978 122.369 40.7898 124.035 37.9571C126.814 33.4873 128.404 30.6915 129.258 26.7909C129.643 25.1168 131.602 16.897 126.998 9.76538C125.426 7.4042 123.379 5.39711 120.988 3.87258C118.553 2.39061 115.861 1.37975 113.053 0.892692C109.146 0.0377142 105.131 -0.205135 101.15 0.172833C93.0472 0.84247 87.0875 3.35361 80.525 6.18282C77.3777 7.53884 78.332 7.30447 65.6758 13.3982C59.5821 16.3278 60.302 15.9763 56.9538 17.5332C50.994 20.4628 45.3858 23.1916 38.7229 27.1257C34.0187 29.9047 30.9217 32.0141 28.5947 33.6882C26.6527 35.0777 25.2465 36.216 24.3257 36.9024C19.4374 40.7194 15.9553 43.9838 14.5323 45.2729C11.7272 47.6759 9.14933 50.3322 6.83147 53.2081C4.42077 55.879 2.55545 58.9955 1.34045 62.3821C0.570365 64.7928 -0.9698 69.6644 0.988888 73.7994C4.67189 81.5672 18.3492 81.6509 22.9865 81.6676C27.6154 81.6083 32.2176 80.9556 36.6805 79.7257C42.5375 78.355 48.2415 76.3975 53.7061 73.8831Z" fill="#4B73CD"/>
<path d="M76.3192 73.8831C82.4631 75.2056 87.6361 76.0762 91.386 76.6454C100.342 78.0014 104.461 78.1018 108.88 77.3652C112.764 76.7291 117.535 75.8753 118.925 72.5941C119.795 70.468 118.925 68.0908 117.971 65.7135C116.921 63.0355 115.363 60.5854 113.384 58.4982C109.914 54.6421 106.104 51.1066 102 47.9347C99.0199 45.7249 96.0065 43.5151 92.3403 41.0039L90.6662 39.8488C90.6662 39.8488 87.6361 37.8064 84.4553 35.8477C78.529 32.2317 68.317 26.7909 64.8182 24.9829C59.4276 22.1369 56.6654 20.6805 53.585 19.2073C46.3864 15.8591 41.7659 14.0176 40.5941 13.5656C37.2403 12.1442 33.7669 11.0237 30.2147 10.2174C25.1087 9.26315 19.5675 8.22522 13.976 11.0712C13.3064 11.4395 6.54304 15.0723 5.05309 21.8691C4.7006 23.9468 4.7006 26.0691 5.05309 28.1469C5.45865 31.5126 6.33787 34.804 7.66468 37.9236C8.74382 40.7359 10.0366 43.4615 11.5318 46.0764C9.47432 43.5145 7.60558 40.8065 5.94036 37.9738C3.22833 33.4873 1.70491 30.6915 0.767418 26.7909C0.382376 25.1168 -1.64328 16.897 3.02744 9.76538C4.59876 7.4042 6.64577 5.3971 9.03743 3.87258C11.4723 2.39061 14.1641 1.37975 16.9726 0.892692C20.879 0.0377142 24.8945 -0.205135 28.8754 0.172833C36.9948 0.84247 42.988 3.35361 49.5002 6.18282C52.6475 7.53884 51.6933 7.30447 64.3494 13.3982C70.4431 16.3278 69.807 15.9763 73.0212 17.5332C78.9978 20.4628 84.606 23.1916 91.2521 27.1257C95.9563 29.9047 99.0534 32.0141 101.297 33.6882C103.239 35.0777 104.645 36.216 105.582 36.9024C110.454 40.7193 113.953 43.9838 115.359 45.2729C118.17 47.6756 120.753 50.3319 123.077 53.2081C125.496 55.8847 127.373 59.0062 128.601 62.3988C129.371 64.8095 130.928 69.6811 128.953 73.8161C125.27 81.5839 111.592 81.6676 106.972 81.6844C102.343 81.6274 97.7402 80.9747 93.2778 79.7424C87.4434 78.3605 81.7622 76.3976 76.3192 73.8831V73.8831Z" fill="#4B73CD"/>
</svg>
